<svg xmlns="http://www.w3.org/2000/svg" xmlns:xlink="http://www.w3.org/1999/xlink" width="180" zoomAndPan="magnify" viewBox="0 0 135 30.000001" height="40" preserveAspectRatio="xMidYMid meet" version="1.0"><defs><g/><clipPath id="b368a078a7"><path d="M 5.082031 5 L 23.226562 5 L 23.226562 24.496094 L 5.082031 24.496094 Z M 5.082031 5 " clip-rule="nonzero"/></clipPath></defs><g fill="#1a76d1" fill-opacity="1"><g transform="translate(29.476391, 19.038286)"><g><path d="M 0.921875 -10.421875 L 3.390625 -10.421875 L 4.53125 -4.359375 L 5.765625 -10.421875 L 8.15625 -10.421875 L 8.328125 0 L 6.6875 0 L 6.5 -6.9375 L 5.296875 0 L 3.84375 0 L 2.546875 -6.984375 L 2.390625 0 L 0.734375 0 Z M 0.921875 -10.421875 "/></g></g></g><g fill="#1a76d1" fill-opacity="1"><g transform="translate(38.529783, 19.038286)"><g><path d="M 0.78125 -10.421875 L 3.09375 -10.421875 L 3.09375 0 L 0.78125 0 Z M 0.78125 -10.421875 "/></g></g></g><g fill="#1a76d1" fill-opacity="1"><g transform="translate(42.400623, 19.038286)"><g><path d="M 0.765625 -10.421875 L 5.453125 -10.421875 L 5.453125 -8.859375 L 3.078125 -8.859375 L 3.078125 -6.265625 L 4.890625 -6.265625 L 4.890625 -4.671875 L 3.078125 -4.671875 L 3.078125 -1.5625 L 5.484375 -1.5625 L 5.484375 0 L 0.765625 0 Z M 0.765625 -10.421875 "/></g></g></g><g fill="#1a76d1" fill-opacity="1"><g transform="translate(48.149011, 19.038286)"><g><path d="M 3.546875 0.15625 C 2.546875 0.15625 1.800781 -0.101562 1.3125 -0.625 C 0.832031 -1.15625 0.578125 -2 0.546875 -3.15625 L 2.515625 -3.453125 C 2.523438 -2.785156 2.601562 -2.304688 2.75 -2.015625 C 2.894531 -1.734375 3.117188 -1.59375 3.421875 -1.59375 C 3.804688 -1.59375 4 -1.847656 4 -2.359375 C 4 -2.765625 3.90625 -3.113281 3.71875 -3.40625 C 3.539062 -3.695312 3.253906 -4.007812 2.859375 -4.34375 L 1.953125 -5.125 C 1.503906 -5.5 1.15625 -5.898438 0.90625 -6.328125 C 0.664062 -6.753906 0.546875 -7.257812 0.546875 -7.84375 C 0.546875 -8.71875 0.804688 -9.390625 1.328125 -9.859375 C 1.847656 -10.335938 2.5625 -10.578125 3.46875 -10.578125 C 4.457031 -10.578125 5.128906 -10.285156 5.484375 -9.703125 C 5.847656 -9.128906 6.039062 -8.429688 6.0625 -7.609375 L 4.078125 -7.359375 C 4.066406 -7.898438 4.019531 -8.289062 3.9375 -8.53125 C 3.851562 -8.769531 3.675781 -8.890625 3.40625 -8.890625 C 3.207031 -8.890625 3.050781 -8.800781 2.9375 -8.625 C 2.832031 -8.457031 2.78125 -8.273438 2.78125 -8.078125 C 2.78125 -7.722656 2.859375 -7.425781 3.015625 -7.1875 C 3.171875 -6.945312 3.425781 -6.671875 3.78125 -6.359375 L 4.640625 -5.59375 C 5.160156 -5.15625 5.5625 -4.691406 5.84375 -4.203125 C 6.125 -3.710938 6.265625 -3.132812 6.265625 -2.46875 C 6.265625 -1.976562 6.148438 -1.535156 5.921875 -1.140625 C 5.703125 -0.742188 5.382812 -0.425781 4.96875 -0.1875 C 4.5625 0.0390625 4.085938 0.15625 3.546875 0.15625 Z M 3.546875 0.15625 "/></g></g></g><g fill="#1a76d1" fill-opacity="1"><g transform="translate(54.759021, 19.038286)"><g><path d="M 1.71875 -8.71875 L 0.140625 -8.71875 L 0.140625 -10.421875 L 5.59375 -10.421875 L 5.59375 -8.71875 L 4.03125 -8.71875 L 4.03125 0 L 1.71875 0 Z M 1.71875 -8.71875 "/></g></g></g><g fill="#1a76d1" fill-opacity="1"><g transform="translate(60.481684, 19.038286)"><g><path d="M 0.78125 -10.421875 L 3.09375 -10.421875 L 3.09375 0 L 0.78125 0 Z M 0.78125 -10.421875 "/></g></g></g><g fill="#1a76d1" fill-opacity="1"><g transform="translate(64.352524, 19.038286)"><g><path d="M 0.921875 -10.421875 L 3.390625 -10.421875 L 4.53125 -4.359375 L 5.765625 -10.421875 L 8.15625 -10.421875 L 8.328125 0 L 6.6875 0 L 6.5 -6.9375 L 5.296875 0 L 3.84375 0 L 2.546875 -6.984375 L 2.390625 0 L 0.734375 0 Z M 0.921875 -10.421875 "/></g></g></g><g fill="#1a76d1" fill-opacity="1"><g transform="translate(73.405917, 19.038286)"><g><path d="M 2.234375 -10.421875 L 4.859375 -10.421875 L 6.8125 0 L 4.6875 0 L 4.34375 -2.203125 L 2.8125 -2.203125 L 2.453125 0 L 0.265625 0 Z M 4.125 -3.578125 L 3.5625 -7.640625 L 3.015625 -3.578125 Z M 4.125 -3.578125 "/></g></g></g><g fill="#1a76d1" fill-opacity="1"><g transform="translate(80.491741, 19.038286)"><g><path d="M 0.765625 -10.421875 L 3.40625 -10.421875 C 4.3125 -10.421875 5.015625 -10.3125 5.515625 -10.09375 C 6.023438 -9.875 6.382812 -9.523438 6.59375 -9.046875 C 6.800781 -8.566406 6.90625 -7.925781 6.90625 -7.125 L 6.90625 -3.34375 C 6.90625 -2.539062 6.800781 -1.894531 6.59375 -1.40625 C 6.382812 -0.925781 6.03125 -0.570312 5.53125 -0.34375 C 5.03125 -0.113281 4.332031 0 3.4375 0 L 0.765625 0 Z M 3.4375 -1.59375 C 3.769531 -1.59375 4.015625 -1.640625 4.171875 -1.734375 C 4.335938 -1.835938 4.441406 -1.984375 4.484375 -2.171875 C 4.523438 -2.359375 4.546875 -2.628906 4.546875 -2.984375 L 4.546875 -7.53125 C 4.546875 -7.863281 4.519531 -8.117188 4.46875 -8.296875 C 4.425781 -8.472656 4.320312 -8.601562 4.15625 -8.6875 C 4 -8.769531 3.753906 -8.8125 3.421875 -8.8125 L 3.078125 -8.8125 L 3.078125 -1.59375 Z M 3.4375 -1.59375 "/></g></g></g><g fill="#1a76d1" fill-opacity="1"><g transform="translate(88.027655, 19.038286)"><g><path d="M 3.765625 0.15625 C 2.640625 0.15625 1.832031 -0.128906 1.34375 -0.703125 C 0.863281 -1.285156 0.625 -2.144531 0.625 -3.28125 L 0.625 -7.15625 C 0.625 -8.289062 0.863281 -9.144531 1.34375 -9.71875 C 1.832031 -10.289062 2.640625 -10.578125 3.765625 -10.578125 C 4.890625 -10.578125 5.691406 -10.285156 6.171875 -9.703125 C 6.660156 -9.128906 6.90625 -8.28125 6.90625 -7.15625 L 6.90625 -3.28125 C 6.90625 -2.144531 6.660156 -1.285156 6.171875 -0.703125 C 5.691406 -0.128906 4.890625 0.15625 3.765625 0.15625 Z M 3.765625 -1.484375 C 4.085938 -1.484375 4.300781 -1.59375 4.40625 -1.8125 C 4.507812 -2.03125 4.5625 -2.328125 4.5625 -2.703125 L 4.5625 -7.71875 C 4.5625 -8.101562 4.507812 -8.40625 4.40625 -8.625 C 4.300781 -8.84375 4.085938 -8.953125 3.765625 -8.953125 C 3.453125 -8.953125 3.242188 -8.84375 3.140625 -8.625 C 3.035156 -8.40625 2.984375 -8.101562 2.984375 -7.71875 L 2.984375 -2.703125 C 2.984375 -2.328125 3.03125 -2.03125 3.125 -1.8125 C 3.21875 -1.59375 3.429688 -1.484375 3.765625 -1.484375 Z M 3.765625 -1.484375 "/></g></g></g><g fill="#1a76d1" fill-opacity="1"><g transform="translate(95.56357, 19.038286)"><g><path d="M 0.765625 -10.421875 L 3.640625 -10.421875 C 4.785156 -10.421875 5.648438 -10.21875 6.234375 -9.8125 C 6.816406 -9.414062 7.109375 -8.703125 7.109375 -7.671875 C 7.109375 -6.972656 7.015625 -6.414062 6.828125 -6 C 6.648438 -5.59375 6.316406 -5.273438 5.828125 -5.046875 L 7.265625 0 L 4.875 0 L 3.734375 -4.671875 L 3.078125 -4.671875 L 3.078125 0 L 0.765625 0 Z M 3.71875 -6 C 4.1875 -6 4.507812 -6.117188 4.6875 -6.359375 C 4.875 -6.609375 4.96875 -6.976562 4.96875 -7.46875 C 4.96875 -7.9375 4.878906 -8.289062 4.703125 -8.53125 C 4.535156 -8.769531 4.242188 -8.890625 3.828125 -8.890625 L 3.078125 -8.890625 L 3.078125 -6 Z M 3.71875 -6 "/></g></g></g><g fill="#000000" fill-opacity="1"><g transform="translate(103.286454, 19.038286)"><g><path d="M 0.59375 -1.984375 L 2.578125 -1.984375 L 2.578125 0 L 0.59375 0 Z M 0.59375 -1.984375 "/></g></g></g><g fill="#000000" fill-opacity="1"><g transform="translate(106.424279, 19.038286)"><g><path d="M 3.765625 0.15625 C 2.628906 0.15625 1.820312 -0.140625 1.34375 -0.734375 C 0.863281 -1.335938 0.625 -2.203125 0.625 -3.328125 L 0.625 -7.078125 C 0.625 -8.234375 0.859375 -9.101562 1.328125 -9.6875 C 1.804688 -10.28125 2.617188 -10.578125 3.765625 -10.578125 C 4.847656 -10.578125 5.617188 -10.3125 6.078125 -9.78125 C 6.535156 -9.257812 6.765625 -8.519531 6.765625 -7.5625 L 6.765625 -6.65625 L 4.5 -6.65625 L 4.5 -7.703125 C 4.5 -8.097656 4.457031 -8.40625 4.375 -8.625 C 4.289062 -8.84375 4.085938 -8.953125 3.765625 -8.953125 C 3.429688 -8.953125 3.210938 -8.835938 3.109375 -8.609375 C 3.015625 -8.378906 2.96875 -8.0625 2.96875 -7.65625 L 2.96875 -2.75 C 2.96875 -2.34375 3.019531 -2.03125 3.125 -1.8125 C 3.226562 -1.59375 3.441406 -1.484375 3.765625 -1.484375 C 4.078125 -1.484375 4.273438 -1.59375 4.359375 -1.8125 C 4.453125 -2.03125 4.5 -2.34375 4.5 -2.75 L 4.5 -3.84375 L 6.765625 -3.84375 L 6.765625 -2.953125 C 6.765625 -1.972656 6.535156 -1.207031 6.078125 -0.65625 C 5.617188 -0.113281 4.847656 0.15625 3.765625 0.15625 Z M 3.765625 0.15625 "/></g></g></g><g fill="#000000" fill-opacity="1"><g transform="translate(113.66442, 19.038286)"><g><path d="M 3.765625 0.15625 C 2.640625 0.15625 1.832031 -0.128906 1.34375 -0.703125 C 0.863281 -1.285156 0.625 -2.144531 0.625 -3.28125 L 0.625 -7.15625 C 0.625 -8.289062 0.863281 -9.144531 1.34375 -9.71875 C 1.832031 -10.289062 2.640625 -10.578125 3.765625 -10.578125 C 4.890625 -10.578125 5.691406 -10.285156 6.171875 -9.703125 C 6.660156 -9.128906 6.90625 -8.28125 6.90625 -7.15625 L 6.90625 -3.28125 C 6.90625 -2.144531 6.660156 -1.285156 6.171875 -0.703125 C 5.691406 -0.128906 4.890625 0.15625 3.765625 0.15625 Z M 3.765625 -1.484375 C 4.085938 -1.484375 4.300781 -1.59375 4.40625 -1.8125 C 4.507812 -2.03125 4.5625 -2.328125 4.5625 -2.703125 L 4.5625 -7.71875 C 4.5625 -8.101562 4.507812 -8.40625 4.40625 -8.625 C 4.300781 -8.84375 4.085938 -8.953125 3.765625 -8.953125 C 3.453125 -8.953125 3.242188 -8.84375 3.140625 -8.625 C 3.035156 -8.40625 2.984375 -8.101562 2.984375 -7.71875 L 2.984375 -2.703125 C 2.984375 -2.328125 3.03125 -2.03125 3.125 -1.8125 C 3.21875 -1.59375 3.429688 -1.484375 3.765625 -1.484375 Z M 3.765625 -1.484375 "/></g></g></g><g fill="#000000" fill-opacity="1"><g transform="translate(121.200335, 19.038286)"><g><path d="M 0.921875 -10.421875 L 3.390625 -10.421875 L 4.53125 -4.359375 L 5.765625 -10.421875 L 8.15625 -10.421875 L 8.328125 0 L 6.6875 0 L 6.5 -6.9375 L 5.296875 0 L 3.84375 0 L 2.546875 -6.984375 L 2.390625 0 L 0.734375 0 Z M 0.921875 -10.421875 "/></g></g></g><g clip-path="url(#b368a078a7)"><path fill="#1a76d1" d="M 10.242188 17.640625 C 10.511719 17.445312 10.894531 17.507812 11.089844 17.78125 L 12.960938 20.398438 C 13.398438 21.007812 14.046875 21.339844 14.800781 21.339844 L 14.839844 21.339844 C 15.59375 21.339844 16.238281 21.007812 16.675781 20.398438 L 18.550781 17.78125 C 18.746094 17.507812 19.128906 17.445312 19.398438 17.640625 C 19.671875 17.835938 19.734375 18.21875 19.539062 18.488281 L 16.917969 22.148438 C 16.652344 22.519531 16.523438 22.914062 16.523438 23.375 L 16.523438 24.085938 C 16.523438 24.109375 16.507812 24.128906 16.484375 24.128906 L 13.152344 24.128906 C 13.132812 24.128906 13.113281 24.109375 13.113281 24.085938 L 13.113281 23.375 C 13.113281 22.914062 12.988281 22.519531 12.722656 22.148438 L 10.101562 18.488281 C 9.90625 18.21875 9.96875 17.835938 10.242188 17.640625 Z M 19.792969 13.726562 C 19.792969 13.925781 19.859375 14.269531 20.050781 14.480469 C 20.308594 14.769531 20.464844 14.832031 20.140625 15.121094 C 20.039062 15.210938 19.90625 15.265625 19.757812 15.273438 C 19.222656 15.300781 18.839844 15.453125 18.585938 15.664062 C 18.289062 15.910156 18.164062 16.238281 18.164062 16.527344 L 18.164062 16.78125 C 18.164062 16.804688 18.183594 16.820312 18.203125 16.820312 L 23.308594 16.820312 C 23.332031 16.820312 23.347656 16.804688 23.347656 16.78125 L 23.347656 16.527344 C 23.347656 16.238281 23.222656 15.910156 22.925781 15.664062 C 22.671875 15.453125 22.292969 15.300781 21.753906 15.273438 C 21.605469 15.265625 21.472656 15.210938 21.371094 15.121094 C 21.035156 14.820312 21.207031 14.769531 21.464844 14.480469 C 21.652344 14.269531 21.746094 13.925781 21.746094 13.726562 C 21.746094 12.996094 20.761719 12.492188 20.097656 13.082031 C 19.910156 13.246094 19.792969 13.472656 19.792969 13.726562 Z M 19.195312 13.726562 C 19.195312 13.910156 19.234375 14.097656 19.316406 14.285156 C 19.320312 14.300781 19.320312 14.3125 19.3125 14.324219 C 19.304688 14.335938 19.292969 14.34375 19.277344 14.34375 L 18.109375 14.34375 C 18.027344 14.34375 17.957031 14.273438 17.957031 14.1875 L 17.957031 12.140625 C 17.957031 12.054688 18.027344 11.984375 18.109375 11.984375 L 23.425781 11.984375 C 23.511719 11.984375 23.582031 12.054688 23.582031 12.140625 L 23.582031 14.1875 C 23.582031 14.273438 23.511719 14.34375 23.425781 14.34375 L 22.257812 14.34375 C 22.246094 14.34375 22.234375 14.335938 22.226562 14.324219 C 22.21875 14.3125 22.21875 14.300781 22.222656 14.285156 C 22.660156 13.277344 21.824219 12.226562 20.769531 12.226562 C 19.9375 12.226562 19.195312 12.902344 19.195312 13.726562 Z M 11.488281 13.367188 L 11.488281 15.21875 C 11.488281 15.242188 11.507812 15.257812 11.527344 15.257812 L 12.144531 15.257812 C 12.285156 15.257812 12.402344 15.144531 12.402344 15.003906 L 12.402344 13.582031 C 12.402344 13.441406 12.285156 13.328125 12.144531 13.328125 L 11.527344 13.328125 C 11.507812 13.328125 11.488281 13.34375 11.488281 13.367188 Z M 9.988281 12.109375 L 9.988281 13.921875 C 9.988281 13.945312 9.972656 13.960938 9.949219 13.960938 L 7.535156 13.984375 C 7.523438 13.984375 7.511719 13.980469 7.503906 13.972656 C 7.496094 13.964844 7.492188 13.957031 7.492188 13.945312 L 7.492188 12.109375 C 7.492188 12.054688 7.449219 12.007812 7.394531 12.007812 L 6.621094 12.007812 C 6.566406 12.007812 6.523438 12.054688 6.523438 12.109375 L 6.523438 16.476562 C 6.523438 16.53125 6.566406 16.578125 6.621094 16.578125 L 7.394531 16.578125 C 7.449219 16.578125 7.492188 16.53125 7.492188 16.476562 L 7.492188 14.664062 C 7.492188 14.640625 7.511719 14.625 7.535156 14.625 L 9.949219 14.601562 C 9.960938 14.601562 9.96875 14.605469 9.976562 14.613281 C 9.984375 14.621094 9.988281 14.628906 9.988281 14.640625 L 9.988281 16.476562 C 9.988281 16.53125 10.035156 16.578125 10.089844 16.578125 L 10.859375 16.578125 C 10.914062 16.578125 10.960938 16.53125 10.960938 16.476562 L 10.960938 12.109375 C 10.960938 12.054688 10.914062 12.007812 10.859375 12.007812 L 10.089844 12.007812 C 10.035156 12.007812 9.988281 12.054688 9.988281 12.109375 Z M 5.15625 13.402344 C 5.109375 13.449219 5.082031 13.511719 5.082031 13.582031 L 5.082031 15.003906 C 5.082031 15.144531 5.199219 15.257812 5.339844 15.257812 L 5.953125 15.257812 C 5.976562 15.257812 5.996094 15.242188 5.996094 15.21875 L 5.996094 13.367188 C 5.996094 13.34375 5.976562 13.328125 5.953125 13.328125 L 5.339844 13.328125 C 5.269531 13.328125 5.203125 13.355469 5.15625 13.402344 Z M 9.210938 11.265625 C 9.121094 11.402344 8.9375 11.441406 8.796875 11.351562 C 8.660156 11.261719 8.621094 11.078125 8.710938 10.941406 C 9.296875 10.035156 10.09375 9.261719 11.011719 8.699219 C 11.152344 8.613281 11.335938 8.65625 11.421875 8.796875 C 11.507812 8.9375 11.460938 9.121094 11.324219 9.207031 C 10.476562 9.722656 9.75 10.433594 9.210938 11.265625 Z M 18.316406 9.207031 C 18.175781 9.121094 18.132812 8.9375 18.21875 8.796875 C 18.304688 8.65625 18.484375 8.613281 18.625 8.699219 C 19.546875 9.261719 20.339844 10.035156 20.929688 10.941406 C 21.019531 11.078125 20.980469 11.261719 20.839844 11.351562 C 20.703125 11.441406 20.519531 11.402344 20.429688 11.265625 C 19.890625 10.433594 19.164062 9.726562 18.316406 9.207031 Z M 14.5 7.523438 C 14.464844 7.179688 14.390625 6.800781 14.269531 6.484375 C 14.160156 6.199219 14.015625 5.976562 13.84375 5.902344 C 13.691406 5.839844 13.621094 5.667969 13.683594 5.515625 C 13.746094 5.363281 13.921875 5.289062 14.074219 5.355469 C 14.265625 5.433594 14.425781 5.582031 14.5625 5.769531 C 14.570312 5.78125 14.582031 5.785156 14.597656 5.785156 C 14.609375 5.785156 14.621094 5.777344 14.628906 5.765625 C 14.910156 5.214844 15.597656 4.902344 16.164062 5.113281 C 16.183594 5.117188 16.191406 5.132812 16.191406 5.148438 C 16.179688 5.800781 15.5625 6.351562 14.90625 6.351562 C 14.894531 6.351562 14.882812 6.355469 14.875 6.367188 C 14.867188 6.378906 14.863281 6.390625 14.871094 6.402344 C 14.992188 6.769531 15.066406 7.1875 15.097656 7.554688 C 15.101562 7.570312 15.109375 7.582031 15.121094 7.589844 C 15.132812 7.59375 15.148438 7.59375 15.160156 7.585938 C 15.6875 7.234375 16.304688 7.164062 16.851562 7.6875 C 17.578125 8.386719 16.75 10.417969 16.070312 11.40625 C 15.847656 11.726562 15.386719 11.78125 15.105469 11.511719 C 14.945312 11.359375 14.695312 11.359375 14.535156 11.511719 C 14.25 11.785156 13.789062 11.734375 13.566406 11.410156 C 12.875 10.40625 12.066406 8.378906 12.789062 7.6875 C 13.316406 7.175781 13.917969 7.234375 14.4375 7.558594 C 14.453125 7.570312 14.46875 7.570312 14.480469 7.558594 C 14.492188 7.550781 14.5 7.539062 14.5 7.523438 Z M 14.820312 18.226562 C 14.148438 18.226562 13.605469 18.769531 13.605469 19.441406 C 13.605469 20.113281 14.148438 20.65625 14.820312 20.65625 C 15.492188 20.65625 16.035156 20.113281 16.035156 19.441406 C 16.035156 18.769531 15.492188 18.226562 14.820312 18.226562 Z M 14.820312 18.226562 " fill-opacity="1" fill-rule="evenodd"/></g></svg>